HIERARCHY
ROOT hip
{
  OFFSET 0 0 0
  CHANNELS 6 Xposition Yposition Zposition Zrotation Yrotation Xrotation
  JOINT abdomen
  {
    OFFSET 0 20.6881 -0.73152
    CHANNELS 3 Zrotation Xrotation Yrotation
    JOINT chest
    {
      OFFSET 0 11.7043 -0.48768
      CHANNELS 3 Zrotation Xrotation Yrotation
      JOINT neck
      {
        OFFSET 0 22.1894 -2.19456
        CHANNELS 3 Zrotation Xrotation Yrotation
        JOINT head
        {
          OFFSET -0.24384 7.07133 1.2192
          CHANNELS 3 Zrotation Xrotation Yrotation
          JOINT leftEye
          {
            OFFSET 4.14528 8.04674 8.04672
            CHANNELS 3 Zrotation Xrotation Yrotation
            End Site
            {
              OFFSET 1 0 0
            }
          }
          JOINT rightEye
          {
            OFFSET -3.6576 8.04674 8.04672
            CHANNELS 3 Zrotation Xrotation Yrotation
            End Site
            {
              OFFSET 1 0 0
            }
          }
        }
      }
      JOINT rCollar
      {
        OFFSET -2.68224 19.2634 -4.8768
        CHANNELS 3 Zrotation Xrotation Yrotation
        JOINT rShldr
        {
          OFFSET -8.77824 -1.95073 1.46304
          CHANNELS 3 Zrotation Xrotation Yrotation
          JOINT rForeArm
          {
            OFFSET -28.1742 -1.7115 0.48768
            CHANNELS 3 Zrotation Xrotation Yrotation
            JOINT rHand
            {
              OFFSET -22.5879 0.773209 7.07136
              CHANNELS 3 Zrotation Xrotation Yrotation
              JOINT rThumb1
              {
                OFFSET -1.2192 -0.487915 3.41376
                CHANNELS 3 Zrotation Xrotation Yrotation
                JOINT rThumb2
                {
                  OFFSET -3.37035 -0.52449 3.41376
                  CHANNELS 3 Zrotation Xrotation Yrotation
                  End Site
                  {
                    OFFSET -1.78271 -1.18214 1.43049
                  }
                }
              }
              JOINT rIndex1
              {
                OFFSET -7.75947 0.938293 5.60832
                CHANNELS 3 Zrotation Xrotation Yrotation
                JOINT rIndex2
                {
                  OFFSET -2.54057 -0.884171 1.56538
                  CHANNELS 3 Zrotation Xrotation Yrotation
                  End Site
                  {
                    OFFSET -1.62519 -0.234802 1.16502
                  }
                }
              }
              JOINT rMid1
              {
                OFFSET -8.24714 1.18213 3.41376
                CHANNELS 3 Zrotation Xrotation Yrotation
                JOINT rMid2
                {
                  OFFSET -3.10165 -0.590103 1.0647
                  CHANNELS 3 Zrotation Xrotation Yrotation
                  End Site
                  {
                    OFFSET -2.48547 -0.328903 0.83742
                  }
                }
              }
              JOINT rRing1
              {
                OFFSET -8.82822 0.546677 1.51678
                CHANNELS 3 Zrotation Xrotation Yrotation
                JOINT rRing2
                {
                  OFFSET -2.60934 -0.819778 -0.0198488
                  CHANNELS 3 Zrotation Xrotation Yrotation
                  End Site
                  {
                    OFFSET -2.33842 -0.294052 0.168128
                  }
                }
              }
              JOINT rPinky1
              {
                OFFSET -8.27202 -0.0477905 -0.4584
                CHANNELS 3 Zrotation Xrotation Yrotation
                JOINT rPinky2
                {
                  OFFSET -1.82734 -0.647385 -0.700984
                  CHANNELS 3 Zrotation Xrotation Yrotation
                  End Site
                  {
                    OFFSET -1.69225 -0.51767 -0.607171
                  }
                }
              }
            }
          }
        }
      }
      JOINT lCollar
      {
        OFFSET 2.68224 19.2634 -4.8768
        CHANNELS 3 Zrotation Xrotation Yrotation
        JOINT lShldr
        {
          OFFSET 8.77824 -1.95073 1.46304
          CHANNELS 3 Zrotation Xrotation Yrotation
          JOINT lForeArm
          {
            OFFSET 28.1742 -1.7115 0.48768
            CHANNELS 3 Zrotation Xrotation Yrotation
            JOINT lHand
            {
              OFFSET 22.5879 0.773209 7.07136
              CHANNELS 3 Zrotation Xrotation Yrotation
              JOINT lThumb1
              {
                OFFSET 1.2192 -0.487915 3.41376
                CHANNELS 3 Zrotation Xrotation Yrotation
                JOINT lThumb2
                {
                  OFFSET 3.37035 -0.52449 3.41376
                  CHANNELS 3 Zrotation Xrotation Yrotation
                  End Site
                  {
                    OFFSET 1.78271 -1.18214 1.43049
                  }
                }
              }
              JOINT lIndex1
              {
                OFFSET 7.75947 0.938293 5.60832
                CHANNELS 3 Zrotation Xrotation Yrotation
                JOINT lIndex2
                {
                  OFFSET 2.54057 -0.884171 1.56538
                  CHANNELS 3 Zrotation Xrotation Yrotation
                  End Site
                  {
                    OFFSET 1.62519 -0.234802 1.16502
                  }
                }
              }
              JOINT lMid1
              {
                OFFSET 8.24714 1.18213 3.41376
                CHANNELS 3 Zrotation Xrotation Yrotation
                JOINT lMid2
                {
                  OFFSET 3.10165 -0.590103 1.0647
                  CHANNELS 3 Zrotation Xrotation Yrotation
                  End Site
                  {
                    OFFSET 2.48547 -0.328903 0.83742
                  }
                }
              }
              JOINT lRing1
              {
                OFFSET 8.82822 0.546677 1.51678
                CHANNELS 3 Zrotation Xrotation Yrotation
                JOINT lRing2
                {
                  OFFSET 2.60934 -0.819778 -0.0198488
                  CHANNELS 3 Zrotation Xrotation Yrotation
                  End Site
                  {
                    OFFSET 2.33842 -0.294052 0.168128
                  }
                }
              }
              JOINT lPinky1
              {
                OFFSET 8.27202 -0.0477905 -0.4584
                CHANNELS 3 Zrotation Xrotation Yrotation
                JOINT lPinky2
                {
                  OFFSET 1.82734 -0.647385 -0.700984
                  CHANNELS 3 Zrotation Xrotation Yrotation
                  End Site
                  {
                    OFFSET 1.69225 -0.51767 -0.607171
                  }
                }
              }
            }
          }
        }
      }
    }
  }
  JOINT rButtock
  {
    OFFSET -8.77824 4.35084 1.2192
    CHANNELS 3 Zrotation Xrotation Yrotation
    JOINT rThigh
    {
      OFFSET 0 -1.70687 -2.19456
      CHANNELS 3 Zrotation Xrotation Yrotation
      JOINT rShin
      {
        OFFSET 0 -36.8199 0.73152
        CHANNELS 3 Zrotation Xrotation Yrotation
        JOINT rFoot
        {
          OFFSET 0.73152 -45.1104 -5.12064
          CHANNELS 3 Zrotation Xrotation Yrotation
          End Site
          {
            OFFSET -1.1221 -3.69964 12.103
          }
        }
      }
    }
  }
  JOINT lButtock
  {
    OFFSET 8.77824 4.35084 1.2192
    CHANNELS 3 Zrotation Xrotation Yrotation
    JOINT lThigh
    {
      OFFSET 0 -1.70687 -2.19456
      CHANNELS 3 Zrotation Xrotation Yrotation
      JOINT lShin
      {
        OFFSET 0 -36.8199 0.73152
        CHANNELS 3 Zrotation Xrotation Yrotation
        JOINT lFoot
        {
          OFFSET -0.73152 -45.1104 -5.12064
          CHANNELS 3 Zrotation Xrotation Yrotation
          End Site
          {
            OFFSET 1.1221 -3.69964 12.103
          }
        }
      }
    }
  }
}
MOTION
Frames:	4
Frame Time:	0.03333
-22.020461410284042 38.16227316856384 -26.531728077679873 -159.41981506347656 79.39055633544922 -149.39697265625 -1.3834028244018555 14.19173812866211 16.557449340820312 -5.30175256729126 -13.76269817352295 3.1120893955230713 1.3871164321899414 14.595765113830566 12.959484100341797 0.15633830428123474 -21.272335052490234 26.206945419311523 -0.24369663000106812 -0.1473572701215744 0.0617610365152359 0.00407805060967803 -0.04183286428451538 -0.19189578294754028 -0.14309990406036377 -0.0027221031486988068 -0.17602862417697906 12.918889045715332 64.46318817138672 50.11345672607422 -27.682065963745117 -43.29075241088867 89.3754653930664 -0.47125688195228577 2.9553215503692627 0.36459067463874817 -0.4944908916950226 -0.4129929542541504 0.27408862113952637 0.014853588305413723 -0.17365464568138123 0.1682111769914627 -0.0935952216386795 0.14395634829998016 0.3094169497489929 7.875925064086914 5.55587911605835 0.5761961936950684 0.16978725790977478 -0.0844590961933136 0.006440261844545603 3.150404691696167 1.192520022392273 0.4601382315158844 0.42859315872192383 0.3241511285305023 -0.38200777769088745 10.257112503051758 0.9169154763221741 0.23329076170921326 0.031049037352204323 -0.22617745399475098 -0.1956152766942978 2.567781925201416 -0.596436619758606 0.15892675518989563 -0.10518030822277069 0.08220687508583069 -0.06297207623720169 -54.751365661621094 6.248016834259033 -19.818445205688477 27.138051986694336 -42.81339645385742 -89.10203552246094 1.8659840822219849 -36.792510986328125 6.086379051208496 0.26259469985961914 -0.189651221036911 0.3565259277820587 -0.14792810380458832 0.20136778056621552 0.0783151239156723 0.15229171514511108 0.028575271368026733 -0.21334291994571686 -8.02087688446045 5.160704612731934 -0.06602238118648529 -0.05162414535880089 -0.11349683254957199 -0.1002563014626503 -2.6621530055999756 1.2288864850997925 -0.3501666486263275 0.046613071113824844 -0.1826959103345871 0.3466709554195404 -10.34171199798584 0.5633228421211243 0.3577844500541687 -0.05991316959261894 0.0627877414226532 0.08006560802459717 -1.9903526306152344 -1.0566604137420654 0.3988618850708008 0.24811387062072754 -0.10720773041248322 -0.1539689153432846 -85.09430694580078 -35.44877624511719 -66.43534851074219 -175.51878356933594 75.4248275756836 178.3668975830078 -0.6309272050857544 -25.386215209960938 -4.282220840454102 -0.006786289159208536 -0.16109289228916168 -0.25894615054130554 110.98191833496094 -48.33162307739258 88.40798950195312 175.037841796875 73.762451171875 -175.30206298828125 -10.041919708251953 -24.03091812133789 -14.410099983215332
-22.23248304799199 37.976622581481934 -26.78157831542194 -158.31954956054688 79.27285766601562 -149.45196533203125 -1.199444055557251 14.29377555847168 16.6068115234375 -5.3721604347229 -13.818718910217285 3.1161446571350098 1.3875852823257446 14.58637523651123 13.05529499053955 0.13393402099609375 -21.329483032226562 26.371652603149414 -0.23418934643268585 -0.15193170309066772 0.07673326879739761 0.0039009612519294024 -0.023942576721310616 -0.1993338167667389 -0.1461544930934906 -0.0017539544496685266 -0.18704958260059357 12.500311851501465 64.4683837890625 50.45151901245117 -27.63304901123047 -43.33899688720703 89.49612426757812 -0.4725644886493683 2.818959951400757 0.38731056451797485 -0.4946259558200836 -0.4184749126434326 0.27035215497016907 -0.0011850395239889622 -0.15454646944999695 0.1734500527381897 -0.08272325992584229 0.15129147469997406 0.3313937485218048 7.900212287902832 5.529230117797852 0.5820629000663757 0.17887349426746368 -0.08468788117170334 0.02169589139521122 3.1575825214385986 1.2018924951553345 0.4570049047470093 0.42083460092544556 0.34573888778686523 -0.3896282911300659 10.253567695617676 0.9361256957054138 0.2621956467628479 0.02565746195614338 -0.22368313372135162 -0.19301041960716248 2.5687255859375 -0.5774415135383606 0.14940820634365082 -0.1031845435500145 0.08107467740774155 -0.048646923154592514 -54.809898376464844 6.093518257141113 -19.869504928588867 27.15715980529785 -42.792198181152344 -89.01634216308594 1.8497081995010376 -36.73440933227539 6.067220687866211 0.285498708486557 -0.18372590839862823 0.36797085404396057 -0.15853512287139893 0.22276683151721954 0.07911157608032227 0.15551307797431946 -0.001671797945164144 -0.20586253702640533 -8.011788368225098 5.1514716148376465 -0.04265666753053665 -0.04726731404662132 -0.1106974333524704 -0.10954230278730392 -2.6753807067871094 1.2177947759628296 -0.3560642898082733 0.06334169209003448 -0.16525501012802124 0.3341652750968933 -10.33462905883789 0.5923150777816772 0.3633583188056946 -0.050294503569602966 0.06026795133948326 0.08582816272974014 -1.9828397035598755 -1.0656650066375732 0.4106332063674927 0.25330284237861633 -0.10275983065366745 -0.17835023999214172 -85.13739776611328 -35.35746383666992 -66.48185729980469 -175.58816528320312 75.36463928222656 178.47055053710938 -0.6983296871185303 -25.417516708374023 -4.3864216804504395 -0.015831973403692245 -0.17755500972270966 -0.262590616941452 111.68557739257812 -48.19526290893555 88.7663803100586 175.07301330566406 73.53135681152344 -175.3263397216797 -10.114234924316406 -24.08319854736328 -14.553689002990723
-22.444836981594563 37.93402016162872 -27.01064497232437 -157.6232452392578 79.30763244628906 -149.2314910888672 -1.1415565013885498 14.409953117370605 16.575279235839844 -5.354397296905518 -13.869142532348633 3.1296989917755127 1.305537223815918 14.5633544921875 12.928757667541504 0.250664621591568 -21.43171501159668 26.14451789855957 -0.21549658477306366 -0.16310206055641174 0.12141263484954834 -0.009148595854640007 -0.01834861934185028 -0.20385856926441193 -0.14850346744060516 -0.014375264756381512 -0.1846817135810852 12.27120304107666 63.759281158447266 50.73340606689453 -27.636186599731445 -43.22636795043945 89.33950805664062 -0.4471189081668854 3.2049052715301514 0.49072834849357605 -0.4961569309234619 -0.39852768182754517 0.2754327654838562 -0.011928508058190346 -0.14988894760608673 0.18942885100841522 -0.07662893831729889 0.1638912558555603 0.38288891315460205 7.913780212402344 5.502668857574463 0.5943509936332703 0.1728164702653885 -0.08509088307619095 0.02846662886440754 3.185678243637085 1.2094608545303345 0.45282167196273804 0.4393668472766876 0.35362935066223145 -0.39917823672294617 10.238057136535645 0.9603375792503357 0.27571210265159607 0.032535895705223083 -0.2259279489517212 -0.18337439000606537 2.5912516117095947 -0.5653544664382935 0.13147057592868805 -0.12106186896562576 0.07089997082948685 -0.04449848085641861 -54.887847900390625 6.50994348526001 -19.75913429260254 27.15908432006836 -42.81178665161133 -89.07749938964844 1.8964377641677856 -37.207786560058594 6.191145896911621 0.29362770915031433 -0.19081097841262817 0.36009278893470764 -0.16850809752941132 0.23151895403862 0.07691549509763718 0.14630591869354248 -0.02438809536397457 -0.1973462700843811 -7.977838039398193 5.131030559539795 -0.047222916036844254 -0.03599206358194351 -0.09921690076589584 -0.0890684425830841 -2.6820945739746094 1.2053022384643555 -0.36618107557296753 0.08440472185611725 -0.14716991782188416 0.31176695227622986 -10.337182998657227 0.6118035912513733 0.34801068902015686 -0.03444343060255051 0.07526552677154541 0.10945797711610794 -1.9992587566375732 -1.0765799283981323 0.4176887571811676 0.2548019587993622 -0.1155291199684143 -0.1743701547384262 -85.35404205322266 -35.465450286865234 -66.76643371582031 -175.64845275878906 75.21336364746094 178.51734924316406 -0.6661906838417053 -25.161264419555664 -4.356165409088135 -0.012153467163443565 -0.1841423064470291 -0.2675759196281433 111.92823028564453 -48.371341705322266 88.8562240600586 175.00965881347656 73.44732666015625 -175.27842712402344 -10.053606986999512 -24.158489227294922 -14.416059494018555
-22.660290729254484 37.8616064786911 -27.218839013949037 -157.2920379638672 79.232666015625 -148.64309692382812 -1.1072105169296265 14.532838821411133 16.575237274169922 -5.343525409698486 -13.928006172180176 3.1399974822998047 1.2324140071868896 14.531977653503418 12.801460266113281 0.35387036204338074 -21.590377807617188 25.94022560119629 -0.19057190418243408 -0.15976835787296295 0.16027683019638062 -0.023462846875190735 -0.01554504781961441 -0.2042369395494461 -0.1740836650133133 -0.03889892250299454 -0.17008471488952637 12.078387260437012 63.01920700073242 50.947418212890625 -27.62459945678711 -43.182716369628906 89.29232025146484 -0.4140815734863281 3.6979594230651855 0.5980941653251648 -0.5000443458557129 -0.3709939122200012 0.27707239985466003 -0.03174716606736183 -0.151898592710495 0.203171506524086 -0.07100677490234375 0.17031145095825195 0.4119665324687958 7.919742107391357 5.48975133895874 0.6083049178123474 0.16404476761817932 -0.07553298026323318 0.023710202425718307 3.2183797359466553 1.213497519493103 0.4423271715641022 0.45525336265563965 0.34738266468048096 -0.39883291721343994 10.228458404541016 0.9847741723060608 0.2699509859085083 0.025698218494653702 -0.21736861765384674 -0.16278864443302155 2.6109519004821777 -0.5655686855316162 0.11078061163425446 -0.146957665681839 0.060756783932447433 -0.03255727142095566 -54.928741455078125 6.971974849700928 -19.681495666503906 27.145648956298828 -42.837501525878906 -89.21265411376953 1.9652056694030762 -37.74196243286133 6.321917533874512 0.2982847988605499 -0.19337257742881775 0.34940433502197266 -0.17928999662399292 0.2376440167427063 0.07339492440223694 0.12624089419841766 -0.02917369082570076 -0.18959546089172363 -7.950332164764404 5.112677097320557 -0.06385046988725662 -0.019772784784436226 -0.0919891968369484 -0.06245680898427963 -2.692756414413452 1.1735074520111084 -0.3733474314212799 0.09451093524694443 -0.1435161530971527 0.2812443971633911 -10.339585304260254 0.6190932989120483 0.3283272683620453 -0.015621925704181194 0.09002497792243958 0.1300821602344513 -2.0324835777282715 -1.07341730594635 0.4204118549823761 0.2592356503009796 -0.14245757460594177 -0.15757077932357788 -85.64859771728516 -35.5977897644043 -67.16277313232422 -175.7188262939453 74.92526245117188 178.5777587890625 -0.6236927509307861 -24.893417358398438 -4.324795246124268 -0.006477623712271452 -0.18564748764038086 -0.27598056197166443 112.22195434570312 -48.57674026489258 89.0744857788086 174.982421875 73.3164291381836 -175.27557373046875 -9.988966941833496 -24.178720474243164 -14.29034423828125
